<svg xmlns="http://www.w3.org/2000/svg" xmlns:svgjs="http://svgjs.com/svgjs" xmlns:xlink="http://www.w3.org/1999/xlink" width="288" height="288"><svg xmlns="http://www.w3.org/2000/svg" width="288" height="288" viewBox="0 0 48 48"><path fill="#fff" d="m 14,2 c -1.108,0 -2,0.892 -2,2 v 40 c 0,1.108 0.892,2 2,2 h 20 c 1.108,0 2,-0.892 2,-2 V 4 C 36,2.892 35.108,2 34,2 Z m 0,1 h 3.5 a 0.5,0.5 0 0 1 0.04883,0.00195 0.5,0.5 0 0 1 0.05078,0.00781 0.5,0.5 0 0 1 0.04687,0.011719 0.5,0.5 0 0 1 0.04687,0.017578 0.5,0.5 0 0 1 0.04687,0.021484 0.5,0.5 0 0 1 0.04102,0.027344 0.5,0.5 0 0 1 0.04102,0.029297 0.5,0.5 0 0 1 0.03516,0.035156 0.5,0.5 0 0 1 0.0332,0.037109 0.5,0.5 0 0 1 0.0293,0.041016 0.5,0.5 0 0 1 0.02539,0.042969 0.5,0.5 0 0 1 0.01953,0.044922 0.5,0.5 0 0 1 0.01563,0.048828 0.5,0.5 0 0 1 0.01172,0.048828 0.5,0.5 0 0 1 0.0059,0.048828 A 0.5,0.5 0 0 1 18,3.5 V 4 c 0,0.554 0.446,1 1,1 h 10 c 0.554,0 1,-0.4460002 1,-1 V 3.5371094 a 0.5,0.5 0 0 0 0,-0.00195 V 3.5 a 0.5,0.5 0 0 1 0.002,-0.048828 0.5,0.5 0 0 1 0.0078,-0.050781 0.5,0.5 0 0 1 0.01172,-0.048828 0.5,0.5 0 0 1 0.01758,-0.046875 0.5,0.5 0 0 1 0.02148,-0.044922 0.5,0.5 0 0 1 0.02734,-0.041016 0.5,0.5 0 0 1 0.0293,-0.041016 0.5,0.5 0 0 1 0.0332,-0.037109 0.5,0.5 0 0 1 0.03906,-0.03125 0.5,0.5 0 0 1 0.03906,-0.029297 0.5,0.5 0 0 1 0.04492,-0.025391 0.5,0.5 0 0 1 0.04492,-0.021484 0.5,0.5 0 0 1 0.04687,-0.015625 0.5,0.5 0 0 1 0.04883,-0.00977 0.5,0.5 0 0 1 0.05078,-0.00586 A 0.5,0.5 0 0 1 30.5,3 H 34 c 0.554,0 1,0.4459999 1,1 v 40 c 0,0.554 -0.446,1 -1,1 H 14 c -0.554,0 -1,-0.446 -1,-1 V 4 c 0,-0.5540001 0.446,-1 1,-1 z" class="color000 svgShape" paint-order="markers stroke fill"/><path fill="#fff" d="m 19.5,43 h 9 c 0.277,0 0.5,0.223 0.5,0.5 0,0.277 -0.223,0.5 -0.5,0.5 h -9 C 19.223,44 19,43.777 19,43.5 19,43.223 19.223,43 19.5,43 Z" class="color000 svgShape" paint-order="markers stroke fill"/></svg></svg>